<svg width="24" height="25" viewBox="0 0 24 25" fill="none" xmlns="http://www.w3.org/2000/svg">
<path d="M14.53 9.53805L9.47 14.5981C8.82 13.9481 8.42 13.0581 8.42 12.0681C8.42 10.0881 10.02 8.48805 12 8.48805C12.99 8.48805 13.88 8.88805 14.53 9.53805Z" stroke="#250C92" stroke-width="1.5" stroke-linecap="round" stroke-linejoin="round"/>
<path d="M17.82 5.83806C16.07 4.51806 14.07 3.79806 12 3.79806C8.47 3.79806 5.18 5.87806 2.89 9.47806C1.99 10.8881 1.99 13.2581 2.89 14.6681C3.68 15.9081 4.6 16.9781 5.6 17.8381" stroke="#250C92" stroke-width="1.5" stroke-linecap="round" stroke-linejoin="round"/>
<path d="M8.42 19.5981C9.56 20.0781 10.77 20.3381 12 20.3381C15.53 20.3381 18.82 18.2581 21.11 14.6581C22.01 13.2481 22.01 10.8781 21.11 9.46805C20.78 8.94805 20.42 8.45805 20.05 7.99805" stroke="#250C92" stroke-width="1.5" stroke-linecap="round" stroke-linejoin="round"/>
<path d="M15.51 12.7681C15.25 14.1781 14.1 15.3281 12.69 15.5881" stroke="#250C92" stroke-width="1.5" stroke-linecap="round" stroke-linejoin="round"/>
<path d="M9.47 14.5981L2 22.0681" stroke="#250C92" stroke-width="1.5" stroke-linecap="round" stroke-linejoin="round"/>
<path d="M22 2.06805L14.53 9.53805" stroke="#250C92" stroke-width="1.5" stroke-linecap="round" stroke-linejoin="round"/>
</svg>
