<svg width="175" height="50" viewBox="0 0 175 50" fill="none" xmlns="http://www.w3.org/2000/svg">
<path d="M58.4534 31.8182V12.3727H55.2648V31.8182H58.4534Z" fill="#7152F3"/>
<path d="M60.405 25.3364C60.405 29.3091 63.0709 32.1318 67.1221 32.1318C71.1732 32.1318 73.8391 29.3091 73.8391 25.3364C73.8391 21.3636 71.1732 18.5409 67.1221 18.5409C63.0709 18.5409 60.405 21.3636 60.405 25.3364ZM63.6198 25.3364C63.6198 23.0102 65.005 21.3898 67.1221 21.3898C69.2391 21.3898 70.6243 23.0102 70.6243 25.3364C70.6243 27.6364 69.2391 29.283 67.1221 29.283C65.005 29.283 63.6198 27.6364 63.6198 25.3364Z" fill="#7152F3"/>
<path d="M74.9116 25.075C74.9116 28.8386 77.3422 31.5568 80.9752 31.5568C82.857 31.5568 84.4775 30.7989 85.2877 29.5443V31.7398C85.2877 33.8568 83.9547 35.2682 81.7332 35.2682C79.7468 35.2682 78.3877 34.3012 78.2047 32.6023H74.99C75.4082 35.9739 77.9956 38.1693 81.5502 38.1693C85.732 38.1693 88.3979 35.425 88.3979 31.1648V18.9068H85.5752L85.3923 20.658C84.6082 19.2989 82.9877 18.4886 81.0797 18.4886C77.3945 18.4886 74.9116 21.2852 74.9116 25.075ZM78.1525 24.9966C78.1525 22.8534 79.5116 21.2852 81.5241 21.2852C83.7195 21.2852 85.1832 22.8796 85.1832 24.9966C85.1832 27.1398 83.7195 28.7864 81.5241 28.7864C79.5377 28.7864 78.1525 27.1659 78.1525 24.9966Z" fill="#7152F3"/>
<path d="M89.9759 25.3364C89.9759 29.3091 92.6418 32.1318 96.6929 32.1318C100.744 32.1318 103.41 29.3091 103.41 25.3364C103.41 21.3636 100.744 18.5409 96.6929 18.5409C92.6418 18.5409 89.9759 21.3636 89.9759 25.3364ZM93.1907 25.3364C93.1907 23.0102 94.5759 21.3898 96.6929 21.3898C98.81 21.3898 100.195 23.0102 100.195 25.3364C100.195 27.6364 98.81 29.283 96.6929 29.283C94.5759 29.283 93.1907 27.6364 93.1907 25.3364Z" fill="#7152F3"/>
<path d="M106.861 16.267C107.906 16.267 108.769 15.4307 108.769 14.3591C108.769 13.3136 107.906 12.4773 106.861 12.4773C105.789 12.4773 104.979 13.3136 104.979 14.3591C104.979 15.4307 105.789 16.267 106.861 16.267ZM105.267 31.8182H108.455V18.9068H105.267V31.8182Z" fill="#7152F3"/>
<path d="M111.249 37.8034H114.359V30.0409C115.169 31.3739 116.92 32.158 118.855 32.158C122.67 32.158 124.944 29.2307 124.892 25.2057C124.814 21.1545 122.488 18.5148 118.828 18.5148C116.868 18.5148 115.091 19.3773 114.307 20.867L114.124 18.9068H111.249V37.8034ZM114.49 25.3625C114.49 23.0364 115.901 21.4159 118.123 21.4159C120.344 21.4159 121.677 23.0625 121.677 25.3625C121.677 27.6625 120.344 29.283 118.123 29.283C115.901 29.283 114.49 27.6886 114.49 25.3625Z" fill="#7152F3"/>
<path d="M125.701 27.95C125.806 30.5114 127.792 32.158 130.876 32.158C133.908 32.158 135.973 30.5375 135.973 28.0284C135.973 26.1727 134.823 24.9182 132.706 24.3955L130.432 23.8466C129.465 23.5852 128.811 23.2455 128.811 22.4091C128.811 21.5205 129.517 20.8932 130.667 20.8932C131.869 20.8932 132.653 21.5727 132.653 22.6966H135.555C135.45 20.1352 133.542 18.5148 130.745 18.5148C127.975 18.5148 125.91 20.1352 125.91 22.592C125.91 24.2648 126.877 25.65 129.36 26.3034L131.608 26.8784C132.444 27.1136 132.967 27.5057 132.967 28.2375C132.967 29.2568 132 29.7273 130.824 29.7273C129.412 29.7273 128.602 29.0739 128.602 27.95H125.701Z" fill="#7152F3"/>
<path d="M142.587 32.1579C144.339 32.1579 146.011 31.3477 146.769 30.1454L146.978 31.8182H149.958V18.9068H146.769V25.6761C146.769 28.0023 145.881 29.3091 143.79 29.3091C142.169 29.3091 141.045 28.525 141.045 25.8591V18.9068H137.857V26.9829C137.857 30.067 139.53 32.1579 142.587 32.1579Z" fill="#7152F3"/>
<path d="M155.96 31.8182V24.3955C155.96 22.3045 157.189 21.3114 158.705 21.3114C160.22 21.3114 161.214 22.2784 161.214 24.108V31.8182H164.324V24.4216C164.324 22.3045 165.526 21.3114 167.042 21.3114C168.584 21.3114 169.577 22.2784 169.577 24.108V31.8182H172.661V23.3761C172.661 20.3966 171.015 18.5148 167.878 18.5148C165.918 18.5148 164.376 19.4557 163.749 20.9716C163.043 19.4557 161.632 18.5148 159.489 18.5148C157.973 18.5148 156.614 19.2205 155.856 20.3705L155.699 18.9068H152.772V31.8182H155.96Z" fill="#7152F3"/>
<path d="M148.316 43.3568C148.791 43.3568 149.203 42.9568 149.203 42.4818C149.203 41.9943 148.791 41.5943 148.316 41.5943C147.828 41.5943 147.416 41.9943 147.416 42.4818C147.416 42.9568 147.828 43.3568 148.316 43.3568Z" fill="#7152F3"/>
<path d="M150.12 40.1318C150.12 42.0443 151.295 43.3318 153.008 43.3318C154.483 43.3318 155.608 42.4443 155.845 41.1193H154.721C154.508 41.8568 153.858 42.2943 153.083 42.2943C151.983 42.2943 151.283 41.4443 151.283 40.1193C151.283 38.7693 152.02 37.9443 153.108 37.9443C153.858 37.9443 154.508 38.3443 154.708 39.1318H155.833C155.633 37.7943 154.583 36.8943 153.12 36.8943C151.345 36.8943 150.12 38.2068 150.12 40.1318Z" fill="#7152F3"/>
<path d="M156.289 40.1193C156.289 41.9568 157.539 43.3318 159.414 43.3318C161.289 43.3318 162.539 41.9568 162.539 40.1193C162.539 38.2818 161.289 36.9068 159.414 36.9068C157.539 36.9068 156.289 38.2818 156.289 40.1193ZM157.476 40.1193C157.476 38.8693 158.239 37.9568 159.414 37.9568C160.589 37.9568 161.351 38.8693 161.351 40.1193C161.351 41.3693 160.589 42.2818 159.414 42.2818C158.239 42.2818 157.476 41.3693 157.476 40.1193Z" fill="#7152F3"/>
<path d="M164.717 43.1943V39.5193C164.717 38.5568 165.317 37.9318 166.192 37.9318C167.03 37.9318 167.555 38.4693 167.555 39.4318V43.1943H168.705V39.5318C168.705 38.5568 169.292 37.9318 170.18 37.9318C171.005 37.9318 171.53 38.4693 171.53 39.4318V43.1943H172.667V39.1818C172.667 37.7693 171.842 36.9068 170.442 36.9068C169.492 36.9068 168.755 37.3693 168.455 38.1193C168.142 37.3693 167.455 36.9068 166.455 36.9068C165.692 36.9068 165.017 37.2568 164.68 37.8568L164.592 37.0818H163.542V43.1943H164.717Z" fill="#7152F3"/>
<path fill-rule="evenodd" clip-rule="evenodd" d="M2.27271 25.4947L2.2749 25.2669L2.27942 25.0391L2.28628 24.8113L2.29548 24.5834L2.30702 24.3556L2.3209 24.1277L2.33713 23.9L2.35568 23.6723L2.37659 23.4447L2.39984 23.2171L2.42543 22.9898L2.45335 22.7625L2.48363 22.5355L2.51624 22.3086L2.55118 22.0821L2.58847 21.8558L2.62809 21.6297L2.67003 21.404L2.71432 21.1785L2.76093 20.9534L2.80988 20.7286L2.86113 20.5043L2.91472 20.2805L2.9706 20.0569L3.02882 19.834L3.08933 19.6114L3.15216 19.3893L3.21728 19.1679L3.28471 18.9469L3.35441 18.7266L3.42641 18.5068L3.50069 18.2876L3.57725 18.0691L3.65607 17.8513L3.73716 17.6341L3.8205 17.4176L3.9061 17.2019L3.99394 16.9869L4.08402 16.7729L4.17633 16.5594L4.27086 16.3468L4.36761 16.1351L4.46657 15.9243L4.56773 15.7143L4.67108 15.5052L4.77661 15.2972L4.88432 15.09L4.99419 14.8838L5.10622 14.6786L5.22039 14.4744L5.33671 14.2713L5.45514 14.0692L5.57569 13.8682L5.69835 13.6683L5.82311 13.4696L5.94996 13.2719L6.07888 13.0756L6.20987 12.8802L6.3429 12.6863L6.47798 12.4934L6.61508 12.3018L6.75419 12.1116L6.89532 11.9225L7.03843 11.7349L7.18354 11.5485L7.33059 11.3635L7.4796 11.1798L7.63056 10.9976L7.78343 10.8167L7.93823 10.6373L8.09492 10.4593L8.25349 10.2829L8.41393 10.1079L8.57624 9.93435L8.74038 9.76237L8.90634 9.59194L9.07412 9.42307L9.24368 9.25577L9.41504 9.09008L9.58815 8.926L9.76301 8.76357L9.9396 8.60277L10.1179 8.44366L10.2979 8.28622L10.4796 8.13049L10.663 7.97649L10.848 7.82422L11.0346 7.67371L11.2229 7.52497L11.4127 7.37802L11.6041 7.23288L11.7971 7.08955L11.9917 6.94808L12.1877 6.80845L12.3852 6.67069L12.5843 6.53482L12.7848 6.40083L12.9867 6.26877L13.1901 6.13863L13.395 6.01045L13.6011 5.88422L13.8087 5.75996L14.0176 5.6377L14.2278 5.51744L14.4394 5.39919L14.6523 5.28297L14.8663 5.16879L15.0817 5.05668L15.2983 4.94662L15.5161 4.83866L15.7351 4.73278L15.9553 4.62901L16.1766 4.52736L16.3991 4.42785L16.6226 4.33047L16.8473 4.23526L17.0729 4.14221L17.2996 4.05134L17.5274 3.96264L17.7561 3.87617L17.9858 3.79188L18.2165 3.70984L18.448 3.63001L18.6805 3.55242L18.9138 3.47709L19.148 3.40401L19.3832 3.3332L19.6191 3.26468L19.8557 3.19844L20.0932 3.13449L20.3313 3.07284L20.5702 3.01351L20.8098 2.95651L21.0501 2.90182L21.291 2.84947L21.5325 2.79946L21.7746 2.7518L22.0174 2.70651L22.2607 2.66357L22.5045 2.623L22.7488 2.5848L22.9936 2.54899L23.2388 2.51557L23.4845 2.48453L23.7307 2.45589L23.9771 2.42964L24.224 2.40583L24.4711 2.38441L24.7186 2.36539L24.9663 2.34882L26.2986 2.27274L26.3746 8.69168L26.4182 8.69118L26.6021 8.69092L26.7861 8.69246L26.9701 8.69582L27.1543 8.70099L27.3384 8.70796L27.5226 8.71674L27.7068 8.72734L27.891 8.73976L28.0751 8.75397L28.2593 8.77002L28.4433 8.78788L28.6273 8.80757L28.811 8.82905L28.9948 8.85236L29.1783 8.87749L29.3617 8.90442L29.5449 8.93318L29.7279 8.96375L29.9107 8.99612L30.0933 9.03032L30.2756 9.06632L30.4575 9.10413L30.6393 9.14375L30.8207 9.18517L31.0017 9.22838L31.1825 9.27341L31.3628 9.32024L31.5427 9.36885L31.7223 9.41926L31.9015 9.47145L32.0801 9.52543L32.2583 9.58119L32.436 9.63874L32.6133 9.69805L32.79 9.75913L32.9661 9.82199L33.1418 9.88659L33.3168 9.95296L33.4912 10.0211L33.6651 10.091L33.8383 10.1626L34.0108 10.2359L34.1827 10.311L34.354 10.3878L34.5244 10.4663L34.6942 10.5465L34.8633 10.6285L35.0316 10.7121L35.1991 10.7975L35.3658 10.8845L35.5317 10.9732L35.6968 11.0636L35.861 11.1556L36.0244 11.2493L36.1869 11.3447L36.3485 11.4417L36.5092 11.5404L36.669 11.6406L36.8277 11.7425L36.9855 11.8459L37.1424 11.951L37.2983 12.0577L37.4531 12.1659L37.6069 12.2758L37.7596 12.3872L37.9112 12.5001L38.0619 12.6147L38.2113 12.7307L38.3598 12.8483L38.5069 12.9673L38.6531 13.0878L38.7979 13.21L38.9417 13.3335L39.0843 13.4585L39.2257 13.585L39.3657 13.713L39.5045 13.8424L39.6421 13.9732L39.7785 14.1054L39.9135 14.239L40.0473 14.374L40.1796 14.5105L40.3108 14.6482L40.4404 14.7873L40.5688 14.9277L40.6958 15.0696L40.8213 15.2126L40.9456 15.3571L41.0683 15.5027L41.1896 15.6497L41.3095 15.798L41.4279 15.9474L41.5449 16.0981L41.6603 16.25L41.7743 16.4032L41.8867 16.5575L41.9976 16.7131L42.1069 16.8698L42.2148 17.0275L42.321 17.1865L42.4257 17.3466L42.5287 17.5079L42.6301 17.6701L42.73 17.8334L42.8282 17.9979L42.9248 18.1633L43.0196 18.3298L43.1129 18.4973L43.2045 18.6658L43.2944 18.8352L43.3826 19.0057L43.4691 19.1771L43.5538 19.3493L43.6369 19.5226L43.7183 19.6967L43.7978 19.8717L43.8757 20.0476L43.9517 20.2243L44.0259 20.4019L44.0984 20.5802L44.1691 20.7594L44.2379 20.9393L44.305 21.1201L44.3702 21.3015L44.4336 21.4838L44.4952 21.6666L44.555 21.8502L44.6128 22.0344L44.6688 22.2193L44.7229 22.4049L44.7752 22.591L44.8256 22.7779L44.8741 22.9652L44.9206 23.1531L44.9653 23.3416L45.0081 23.5306L45.0489 23.7201L45.0878 23.91L45.1248 24.1006L45.1598 24.2915L45.1929 24.4829L45.2241 24.6746L45.2533 24.8667L45.2806 25.0593L45.3058 25.2522L45.3291 25.4455L45.3504 25.639L45.3698 25.8329L45.3871 26.0269L45.4026 26.2214L45.416 26.416L45.4274 26.6109L45.4368 26.8059L45.4443 27.0013L45.4496 27.1966L45.4532 27.3922L45.4545 27.5879L45.454 27.7836L45.4514 27.9796L45.4467 28.1756L45.4401 28.3715L45.4315 28.5675L45.4209 28.7635L45.4082 28.9596L45.3935 29.1556L45.3768 29.3515L45.3581 29.5474L45.3374 29.7432L45.3145 29.9388L45.2898 30.1343L45.2631 30.3297L45.2342 30.5249L45.2034 30.7199L45.1706 30.9147L45.1357 31.1092L45.0989 31.3035L45.06 31.4976L45.0191 31.6914L44.9761 31.8848L44.9312 32.078L44.8844 32.2707L44.8354 32.4631L44.7845 32.655L44.7317 32.8466L44.6768 33.0377L44.62 33.2284L44.5611 33.4188L44.5002 33.6084L44.4375 33.7977L44.3727 33.9864L44.3059 34.1746L44.2373 34.3622L44.1666 34.5491L44.094 34.7355L44.0194 34.9213L43.9429 35.1064L43.8645 35.2908L43.7842 35.4747L43.7019 35.6576L43.6177 35.84L43.5316 36.0216L43.4436 36.2024L43.3536 36.3825L43.2619 36.5617L43.1682 36.7402L43.0727 36.9177L42.9752 37.0946L42.876 37.2704L42.7749 37.4454L42.6719 37.6194L42.5671 37.7925L42.4606 37.9648L42.352 38.1359L42.2418 38.3061L42.1299 38.4754L42.016 38.6435L41.9004 38.8107L41.7831 38.9768L41.664 39.1418L41.5431 39.3058L41.4204 39.4686L41.2961 39.6304L41.1701 39.7908L41.0424 39.9502L40.9129 40.1084L40.7818 40.2654L40.649 40.4211L40.5145 40.5757L40.3784 40.729L40.2407 40.881L40.1013 41.0318L39.9604 41.1813L39.8178 41.3294L39.6737 41.4762L39.5279 41.6216L39.3807 41.7657L39.2319 41.9084L39.0816 42.0498L38.9298 42.1897L38.7763 42.3282L38.6215 42.4651L38.4652 42.6007L38.3074 42.7349L38.1482 42.8675L37.9875 42.9985L37.8254 43.1282L37.6619 43.2563L37.497 43.3827L37.3308 43.5076L37.1632 43.631L36.9943 43.7529L36.824 43.873L36.6524 43.9916L36.4795 44.1085L36.3054 44.2238L36.13 44.3374L35.9534 44.4494L35.7756 44.5597L35.5965 44.6683L35.4161 44.7751L35.2346 44.8804L35.0521 44.9838L34.8683 45.0854L34.6835 45.1854L34.4975 45.2834L34.3104 45.3798L34.1223 45.4744L33.9331 45.5672L33.7428 45.6581L33.5516 45.7473L33.3593 45.8346L33.1661 45.92L32.9719 46.0035L32.7768 46.0852L32.5808 46.1651L32.3838 46.2431L32.186 46.3191L31.9873 46.3933L31.7877 46.4655L31.5873 46.5358L31.3861 46.6041L31.1842 46.6706L30.9813 46.735L30.7778 46.7975L30.5736 46.8581L30.3687 46.9166L30.1631 46.9732L29.9568 47.0279L29.7498 47.0804L29.5423 47.1309L29.3341 47.1796L29.1252 47.226L28.9159 47.2706L28.706 47.3131L28.4956 47.3535L28.2846 47.3919L28.0733 47.4282L27.8613 47.4625L27.6491 47.4948L27.4362 47.5249L27.2232 47.553L27.0096 47.579L26.7957 47.6029L26.5815 47.6247L26.3669 47.6444L26.1521 47.6621L25.937 47.6776L25.7217 47.691L25.506 47.7024L25.2902 47.7116L25.0743 47.7187L24.858 47.7236L24.6418 47.7265L24.4253 47.7273L24.2088 47.7259L23.9923 47.7224L23.7756 47.7168L23.5588 47.709L23.3421 47.6991L23.1254 47.6872L22.9088 47.673L22.6921 47.6567L22.4757 47.6383L22.2592 47.6177L22.0428 47.5951L21.8267 47.5704L21.6107 47.5434L21.3948 47.5143L21.1792 47.4831L20.9637 47.4498L20.7486 47.4143L20.5337 47.3768L20.3191 47.3371L20.1049 47.2952L19.8909 47.2514L19.6774 47.2052L19.4641 47.1571L19.2513 47.1068L19.039 47.0544L18.827 46.9999L18.6155 46.9433L18.4046 46.8847L18.1942 46.8239L17.9842 46.761L17.7749 46.696L17.5661 46.629L17.3579 46.5599L17.1503 46.4886L16.9434 46.4154L16.7371 46.3401L16.5316 46.2627L16.3267 46.1833L16.1226 46.1018L15.9192 46.0183L15.7166 45.9327L15.5148 45.8452L15.3137 45.7557L15.1135 45.6641L14.9142 45.5705L14.7158 45.4749L14.5183 45.3773L14.3216 45.2777L14.1259 45.1763L13.9312 45.0727L13.7374 44.9674L13.5446 44.86L13.3529 44.7507L13.1623 44.6394L12.9726 44.5263L12.7841 44.4113L12.5966 44.2942L12.4102 44.1755L12.2251 44.0547L12.041 43.9322L11.8582 43.8076L11.6766 43.6814L11.4961 43.5533L11.3169 43.4233L11.139 43.2916L10.9623 43.158L10.787 43.0226L10.6129 42.8856L10.4402 42.7466L10.2689 42.606L10.0989 42.4636L9.93027 42.3196L9.76308 42.1738L9.59732 42.0261L9.433 41.8769L9.27015 41.7262L9.10876 41.5735L8.94889 41.4194L8.79052 41.2635L8.63368 41.1061L8.4784 40.9472L8.32468 40.7865L8.17255 40.6243L8.02201 40.4606L7.8731 40.2952L7.72582 40.1284L7.58018 39.9601L7.43622 39.7902L7.29393 39.619L7.15335 39.4461L7.01448 39.2719L6.87734 39.0963L6.74194 38.9192L6.60831 38.7407L6.47644 38.5608L6.34638 38.3796L6.2181 38.1969L6.09166 38.0131L5.96705 37.8279L5.84429 37.6413L5.72339 37.4535L5.60435 37.2644L5.48722 37.0741L5.37199 36.8826L5.25867 36.6898L5.1473 36.4959L5.03785 36.3008L4.93036 36.1046L4.82485 35.9071L4.72131 35.7085L4.61977 35.509L4.52023 35.3083L4.42272 35.1066L4.32723 34.9038L4.23377 34.7L4.14238 34.4951L4.05303 34.2894L3.96577 34.0826L3.8806 33.875L3.79751 33.6664L3.71653 33.4568L3.63768 33.2465L3.56094 33.0352L3.48634 32.8232L3.41388 32.6104L3.34357 32.3966L3.27543 32.1822L3.20946 31.9669L3.14567 31.751L3.08407 31.5343L3.02466 31.3169L2.96746 31.099L2.91247 30.8804L2.85969 30.661L2.80916 30.4411L2.76085 30.2206L2.71478 29.9996L2.67097 29.778L2.6294 29.5559L2.59009 29.3333L2.55306 29.1102L2.51828 28.8867L2.4858 28.6627L2.45559 28.4383L2.42768 28.2135L2.40206 27.9884L2.37873 27.763L2.35771 27.5373L2.33899 27.3111L2.32258 27.0848L2.30849 26.8582L2.29672 26.6314L2.28726 26.4043L2.28013 26.1772L2.27532 25.9498L2.27285 25.7223L2.27271 25.4947ZM24.2933 8.82613L24.2415 4.45091L24.1923 4.45566L23.9663 4.4797L23.741 4.50593L23.5158 4.53438L23.2915 4.56495L23.0674 4.59775L22.8435 4.63274L22.6203 4.66987L22.3974 4.70922L22.1756 4.75062L21.9534 4.79434L21.7328 4.84002L21.5119 4.88801L21.2921 4.93803L21.0726 4.99028L20.8541 5.04453L20.6361 5.10096L20.4187 5.1595L20.202 5.22014L19.9863 5.28283L19.771 5.34767L19.5568 5.41452L19.3432 5.4835L19.1307 5.55438L18.9185 5.62751L18.7075 5.70259L18.4975 5.77966L18.288 5.85883L18.0798 5.93993L17.8726 6.02299L17.666 6.10818L17.4604 6.1953L17.2559 6.28442L17.0525 6.37541L16.8501 6.46837L16.6488 6.56321L16.4483 6.66015L16.2492 6.75885L16.0511 6.85948L15.8542 6.962L15.6584 7.06642L15.464 7.17262L15.2703 7.28079L15.0779 7.39084L14.8873 7.50245L14.6971 7.61625L14.5088 7.73155L14.3218 7.84866L14.1357 7.96768L13.951 8.08844L13.7677 8.21096L13.5861 8.33493L13.4052 8.46109L13.2261 8.5886L13.0484 8.71787L12.8719 8.84892L12.697 8.98152L12.5237 9.11571L12.3515 9.25179L12.1811 9.38917L12.012 9.52835L11.8445 9.66904L11.6785 9.81137L11.5142 9.95507L11.3511 10.1006L11.1899 10.2474L11.03 10.3959L10.872 10.5456L10.7155 10.697L10.5606 10.8497L10.4074 11.004L10.2557 11.1598L10.1059 11.3167L9.95781 11.475L9.81105 11.6351L9.66632 11.7963L9.52337 11.9585L9.38188 12.1225L9.24245 12.2875L9.10456 12.454L8.96852 12.6216L8.83427 12.7906L8.70177 12.9607L8.57123 13.1319L8.44239 13.3044L8.31532 13.4783L8.1903 13.653L8.06694 13.8291L7.94556 14.0061L7.82605 14.1843L7.70833 14.3636L7.5926 14.544L7.47877 14.7252L7.36685 14.9076L7.25693 15.0909L7.14882 15.2754L7.04265 15.4608L6.93857 15.6469L6.83635 15.8341L6.73609 16.0223L6.63787 16.2113L6.54157 16.4011L6.44734 16.5917L6.35508 16.7832L6.26485 16.9755L6.17659 17.1686L6.09042 17.3624L6.00621 17.5571L5.92405 17.7524L5.84399 17.9483L5.76593 18.145L5.68992 18.3424L5.616 18.5404L5.54413 18.739L5.47438 18.9381L5.40664 19.138L5.341 19.3383L5.27747 19.5392L5.21604 19.7405L5.15665 19.9425L5.09941 20.1448L5.04426 20.3476L4.99121 20.5508L4.94026 20.7546L4.89144 20.9585L4.84474 21.163L4.80015 21.3677L4.75768 21.5729L4.71734 21.7782L4.67911 21.9839L4.64302 22.1898L4.60906 22.396L4.57723 22.6024L4.54752 22.809L4.51996 23.0158L4.49451 23.2227L4.47121 23.4298L4.45004 23.6371L4.431 23.8443L4.41409 24.0516L4.39932 24.2591L4.38668 24.4666L4.37617 24.674L4.3678 24.8815L4.36155 25.0889L4.35743 25.2963L4.35543 25.5035L4.35557 25.7108L4.35782 25.9179L4.36219 26.1249L4.36868 26.3317L4.37729 26.5383L4.38801 26.7448L4.40083 26.9509L4.41576 27.1569L4.4328 27.3626L4.45193 27.5681L4.47315 27.7733L4.49647 27.9781L4.52186 28.1826L4.54934 28.3867L4.5789 28.5905L4.61054 28.7939L4.64422 28.9967L4.67998 29.1992L4.71779 29.4013L4.75764 29.6027L4.79954 29.8039L4.84347 30.0043L4.88943 30.2043L4.93742 30.4038L4.98742 30.6026L5.03944 30.8009L5.09344 30.9984L5.14947 31.1955L5.20747 31.3918L5.26744 31.5875L5.3294 31.7825L5.3933 31.9767L5.45916 32.1702L5.52698 32.363L5.59673 32.555L5.66839 32.7461L5.74201 32.9366L5.8175 33.1261L5.8949 33.3149L5.97421 33.5027L6.05538 33.6897L6.13843 33.8758L6.22334 34.061L6.3101 34.2452L6.39869 34.4285L6.48913 34.6108L6.58136 34.7922L6.67542 34.9725L6.77126 35.1518L6.8689 35.3301L6.9683 35.5073L7.06946 35.6834L7.17237 35.8585L7.27702 36.0324L7.38335 36.2052L7.49147 36.3769L7.60123 36.5474L7.71271 36.7168L7.82585 36.885L7.94064 37.0519L8.05707 37.2177L8.17517 37.3823L8.29485 37.5456L8.41618 37.7076L8.53905 37.8683L8.66356 38.0277L8.78956 38.1858L8.91715 38.3426L9.04631 38.4982L9.17691 38.6523L9.30907 38.805L9.4427 38.9564L9.57784 39.1064L9.71441 39.2549L9.8524 39.4021L9.99185 39.5477L10.1327 39.6921L10.275 39.8349L10.4186 39.9762L10.5637 40.116L10.71 40.2543L10.8577 40.3913L11.0068 40.5266L11.1571 40.6604L11.3086 40.7925L11.4616 40.9232L11.6158 41.0523L11.771 41.1798L11.9277 41.3058L12.0854 41.43L12.2444 41.5527L12.4045 41.6739L12.5659 41.7933L12.7283 41.911L12.8918 42.0272L13.0563 42.1416L13.2221 42.2544L13.3888 42.3655L13.5568 42.4749L13.7255 42.5826L13.8954 42.6885L14.0663 42.7929L14.238 42.8954L14.4109 42.9962L14.5845 43.0951L14.7592 43.1924L14.9346 43.2879L15.1111 43.3816L15.2883 43.4735L15.4663 43.5638L15.6453 43.6521L15.8251 43.7387L16.0055 43.8234L16.1868 43.9064L16.3687 43.9874L16.5516 44.0667L16.735 44.1441L16.9192 44.2198L17.104 44.2935L17.2894 44.3654L17.4755 44.4355L17.6621 44.5037L17.8494 44.5699L18.0374 44.6343L18.2258 44.6969L18.4148 44.7576L18.6041 44.8164L18.7942 44.8733L18.9845 44.9283L19.1754 44.9814L19.3668 45.0326L19.5585 45.0819L19.7507 45.1293L19.9431 45.1748L20.136 45.2184L20.3292 45.26L20.5226 45.2998L20.7165 45.3376L20.9106 45.3735L21.1049 45.4075L21.2994 45.4396L21.4942 45.4697L21.6892 45.4979L21.8844 45.5241L22.0796 45.5485L22.2751 45.5709L22.4707 45.5914L22.6663 45.61L22.8621 45.6266L23.0579 45.6414L23.2537 45.6541L23.4496 45.665L23.6454 45.6739L23.8412 45.6809L24.037 45.686L24.2328 45.6891L24.4284 45.6904L24.624 45.6897L24.8194 45.6871L25.0146 45.6826L25.2098 45.6761L25.4048 45.6679L25.5995 45.6576L25.794 45.6455L25.9883 45.6315L26.1824 45.6156L26.3761 45.5977L26.5695 45.578L26.7627 45.5564L26.9554 45.533L27.1479 45.5076L27.34 45.4804L27.5317 45.4513L27.7229 45.4204L27.9138 45.3875L28.1043 45.3529L28.2942 45.3164L28.4836 45.2781L28.6726 45.2379L28.861 45.1959L29.0488 45.1521L29.2362 45.1064L29.4229 45.059L29.6091 45.0097L29.7945 44.9586L29.9795 44.9058L30.1637 44.8512L30.3474 44.7948L30.5302 44.7367L30.7125 44.6767L30.894 44.6151L31.0745 44.5517L31.2546 44.4865L31.4338 44.4197L31.6123 44.351L31.7899 44.2808L31.9666 44.2089L32.1425 44.1351L32.3176 44.0598L32.4918 43.9827L32.665 43.9041L32.8375 43.8238L33.009 43.7417L33.1794 43.6582L33.3491 43.5729L33.5176 43.486L33.6852 43.3976L33.8519 43.3075L34.0174 43.2159L34.1819 43.1227L34.3453 43.0281L34.5079 42.9317L34.6691 42.834L34.8295 42.7346L34.9885 42.6338L35.1465 42.5314L35.3034 42.4275L35.4592 42.3221L35.6135 42.2155L35.7668 42.1072L35.919 41.9975L36.0699 41.8865L36.2196 41.7739L36.3679 41.6601L36.5153 41.5447L36.6611 41.4281L36.8057 41.3101L36.9492 41.1907L37.0912 41.0699L37.2318 40.948L37.3712 40.8246L37.5092 40.7L37.6459 40.5741L37.7812 40.4469L37.915 40.3186L38.0476 40.1889L38.1787 40.058L38.3084 39.9259L38.4367 39.7926L38.5634 39.6583L38.6886 39.5229L38.8127 39.3858L38.935 39.2481L39.056 39.109L39.1753 38.969L39.2933 38.8277L39.4096 38.6856L39.5244 38.5423L39.6378 38.3979L39.7495 38.2526L39.8599 38.1062L39.9684 37.9589L40.0756 37.8105L40.1812 37.661L40.2849 37.511L40.3873 37.3598L40.4878 37.2079L40.5869 37.0548L40.6845 36.9008L40.7802 36.7463L40.8743 36.5908L40.9669 36.4341L41.0576 36.2772L41.1468 36.1191L41.2344 35.9602L41.3201 35.8009L41.4043 35.6405L41.4868 35.4793L41.5674 35.3181L41.6465 35.1555L41.7238 34.9923L41.7994 34.8286L41.8733 34.6643L41.9454 34.4993L42.0158 34.3339L42.0845 34.1675L42.1515 34.0007L42.2166 33.8338L42.28 33.6656L42.3416 33.4974L42.4016 33.3284L42.4598 33.1591L42.5161 32.9892L42.5706 32.8193L42.6235 32.6482L42.6744 32.4773L42.7236 32.3058L42.7711 32.1341L42.8168 31.9617L42.8606 31.7893L42.9027 31.6164L42.9429 31.4431L42.9815 31.2697L43.0182 31.0958L43.0529 30.9221L43.086 30.7475L43.1173 30.5734L43.1467 30.3986L43.1743 30.2238L43.2001 30.0489L43.2242 29.8736L43.2463 29.6986L43.2668 29.5229L43.2853 29.3477L43.3021 29.1721L43.317 28.9967L43.3302 28.8208L43.3416 28.6456L43.3511 28.4698L43.3588 28.2939L43.3648 28.1184L43.369 27.9433L43.3712 27.7675L43.3718 27.5921L43.3706 27.4168L43.3675 27.2417L43.3626 27.0666L43.3559 26.8922L43.3475 26.7171L43.3373 26.5427L43.3252 26.3684L43.3115 26.1947L43.2959 26.0206L43.2786 25.8473L43.2595 25.6739L43.2386 25.501L43.216 25.3283L43.1917 25.1561L43.1654 24.9839L43.1376 24.8124L43.1081 24.6415L43.0767 24.4705L43.0435 24.3L43.0087 24.1302L42.9721 23.9604L42.9341 23.7917L42.894 23.6229L42.8525 23.4551L42.809 23.2872L42.764 23.1205L42.7173 22.954L42.6688 22.7879L42.6189 22.6227L42.5671 22.4582L42.5136 22.2938L42.4587 22.1306L42.4019 21.9675L42.3437 21.8055L42.2837 21.6438L42.2223 21.4832L42.159 21.3228L42.0942 21.1634L42.0279 21.005L41.9601 20.8473L41.8903 20.6898L41.8195 20.5338L41.7467 20.3779L41.6726 20.2234L41.5969 20.0696L41.5195 19.9163L41.4409 19.7642L41.3606 19.6129L41.2786 19.4622L41.1957 19.313L41.1108 19.1641L41.0246 19.0165L40.9368 18.8696L40.8479 18.7241L40.7571 18.579L40.6653 18.4352L40.5718 18.2922L40.477 18.1504L40.381 18.0098L40.2833 17.8698L40.1843 17.731L40.0841 17.5933L39.9824 17.4568L39.8794 17.3211L39.7751 17.1868L39.6695 17.0534L39.5626 16.9213L39.4544 16.7902L39.3449 16.6602L39.2341 16.5315L39.1221 16.4039L39.0091 16.2775L38.8946 16.1523L38.7787 16.0281L38.6623 15.9056L38.5438 15.7838L38.4249 15.6636L38.3045 15.5444L38.1832 15.4267L38.0602 15.3099L37.9368 15.1949L37.8118 15.0808L37.6858 14.9681L37.5591 14.8568L37.4311 14.7468L37.3017 14.6379L37.1716 14.5305L37.0406 14.4244L36.9084 14.3198L36.7752 14.2164L36.6413 14.1147L36.506 14.0138L36.3702 13.9148L36.2333 13.8171L36.0953 13.7206L35.9568 13.6257L35.8168 13.5319L35.6768 13.4401L35.5352 13.3493L35.3932 13.2601L35.25 13.1723L35.1062 13.0859L34.9617 13.0011L34.8166 12.918L34.6701 12.8358L34.5236 12.7556L34.3759 12.6766L34.2276 12.5992L34.0787 12.5234L33.929 12.449L33.7786 12.376L33.6277 12.3048L33.476 12.2349L33.324 12.1667L33.1711 12.0999L33.0128 12.0326L32.864 11.9711L32.7091 11.9089L32.5544 11.8485L32.3985 11.7893L32.2426 11.7321L32.086 11.6761L31.9291 11.6219L31.7715 11.5691L31.6137 11.5181L31.4553 11.4685L31.2966 11.4206L31.1377 11.3743L30.9782 11.3295L30.8181 11.2862L30.6582 11.2447L30.4979 11.2048L30.3367 11.1663L30.176 11.1296L30.0145 11.0944L29.8531 11.0609L29.691 11.0289L29.5292 10.9986L29.3669 10.9698L29.2048 10.9427L29.0418 10.9172L28.8793 10.8933L28.7165 10.871L28.5534 10.8503L28.3903 10.8312L28.2273 10.8138L28.0641 10.798L27.9008 10.7837L27.7374 10.7711L27.5738 10.7601L27.4108 10.7507L27.2476 10.7429L27.0838 10.7367L26.921 10.7322L26.7578 10.7292L26.5948 10.7278L26.4315 10.728L26.3987 10.7284L26.4502 15.0718L26.5428 15.0714L26.662 15.0721L26.7812 15.0739L26.9006 15.0769L27.02 15.0811L27.1394 15.0866L27.2588 15.0932L27.3784 15.1009L27.4979 15.1099L27.6175 15.12L27.737 15.1314L27.8565 15.1439L27.976 15.1576L28.0954 15.1725L28.2148 15.1885L28.3341 15.2059L28.4533 15.2243L28.5724 15.244L28.6915 15.2649L28.8103 15.2869L28.9291 15.3102L29.0477 15.3347L29.1662 15.3602L29.2845 15.3871L29.4026 15.4151L29.5206 15.4443L29.6382 15.4747L29.7557 15.5063L29.8729 15.539L29.99 15.573L30.1068 15.6081L30.2233 15.6443L30.3394 15.6818L30.4553 15.7205L30.571 15.7604L30.6862 15.8014L30.8012 15.8435L30.9158 15.8868L31.0301 15.9314L31.144 15.9771L31.2575 16.0239L31.3706 16.0719L31.4833 16.121L31.5956 16.1714L31.7074 16.2227L31.8187 16.2754L31.9298 16.3291L32.0402 16.384L32.1502 16.44L32.2598 16.4972L32.3687 16.5554L32.4773 16.6148L32.5852 16.6752L32.6926 16.7368L32.7995 16.7996L32.9059 16.8634L33.0116 16.9283L33.1167 16.9943L33.2212 17.0615L33.3252 17.1297L33.4285 17.1989L33.5312 17.2692L33.6333 17.3407L33.7346 17.4131L33.8353 17.4866L33.9353 17.5613L34.0348 17.6368L34.1333 17.7135L34.2312 17.7913L34.3284 17.8699L34.4249 17.9497L34.5206 18.0305L34.6156 18.1122L34.7098 18.1949L34.8032 18.2786L34.8958 18.3634L34.9875 18.4491L35.0785 18.5358L35.1686 18.6234L35.2579 18.7121L35.3465 18.8016L35.4341 18.8922L35.5209 18.9835L35.6067 19.0759L35.6917 19.1692L35.7758 19.2634L35.859 19.3584L35.9412 19.4544L36.0226 19.5513L36.1031 19.649L36.1825 19.7476L36.261 19.8471L36.3385 19.9474L36.4151 20.0485L36.4907 20.1506L36.5652 20.2533L36.6388 20.3569L36.7113 20.4614L36.7829 20.5666L36.8534 20.6726L36.9228 20.7793L36.9912 20.8869L37.0586 20.9952L37.125 21.1042L37.1902 21.214L37.2543 21.3246L37.3174 21.4357L37.3793 21.5476L37.4401 21.6602L37.4999 21.7735L37.5585 21.8875L37.6159 22.0022L37.6723 22.1175L37.7275 22.2334L37.7815 22.3499L37.8343 22.4672L37.886 22.5849L37.9366 22.7033L37.9859 22.8223L38.0341 22.9418L38.081 23.0619L38.1267 23.1825L38.1712 23.3038L38.2145 23.4255L38.2567 23.5477L38.2976 23.6705L38.3371 23.7938L38.3756 23.9174L38.4127 24.0416L38.4486 24.1663L38.4833 24.2914L38.5166 24.4169L38.5487 24.5429L38.5795 24.6692L38.6091 24.7959L38.6374 24.9231L38.6643 25.0506L38.69 25.1784L38.7143 25.3066L38.7374 25.4352L38.7592 25.5641L38.7796 25.6932L38.7987 25.8227L38.8166 25.9524L38.8331 26.0824L38.8483 26.2127L38.862 26.3433L38.8745 26.474L38.8858 26.605L38.8956 26.7361L38.9041 26.8675L38.9111 26.999L38.9169 27.1307L38.9213 27.2626L38.9244 27.3946L38.9261 27.5267L38.9265 27.659L38.9254 27.7913L38.9231 27.9236L38.9193 28.0561L38.9142 28.1888L38.9077 28.3213L38.8999 28.4539L38.8907 28.5866L38.8801 28.7192L38.8681 28.8518L38.8548 28.9844L38.84 29.1169L38.824 29.2496L38.8065 29.3819L38.7876 29.5143L38.7674 29.6466L38.7458 29.7788L38.7228 29.9108L38.6984 30.0427L38.6727 30.1746L38.6456 30.3061L38.617 30.4376L38.5873 30.5689L38.556 30.6999L38.5234 30.8307L38.4894 30.9614L38.4541 31.0917L38.4174 31.2218L38.3793 31.3516L38.3399 31.4811L38.2991 31.6105L38.2568 31.7394L38.2133 31.868L38.1684 31.9963L38.1223 32.1242L38.0746 32.2517L38.0257 32.3789L37.9754 32.5057L37.9239 32.6321L37.8709 32.7581L37.8166 32.8835L37.761 33.0086L37.7041 33.1333L37.6458 33.2574L37.5862 33.381L37.5253 33.5042L37.4631 33.6268L37.3995 33.749L37.3348 33.8705L37.2686 33.9915L37.2012 34.1119L37.1326 34.2318L37.0626 34.351L36.9913 34.4698L36.9188 34.5877L36.8451 34.7052L36.77 34.8219L36.6937 34.9381L36.6161 35.0534L36.5374 35.1682L36.4574 35.2823L36.3761 35.3956L36.2936 35.5082L36.21 35.6201L36.1251 35.7313L36.039 35.8416L35.9517 35.9511L35.8632 36.06L35.7735 36.168L35.6827 36.2752L35.5907 36.3816L35.4975 36.4872L35.4032 36.5918L35.3077 36.6957L35.2111 36.7986L35.1135 36.9008L35.0146 37.0019L34.9148 37.1023L34.8136 37.2016L34.7116 37.3001L34.6083 37.3976L34.5041 37.4941L34.3987 37.5898L34.2923 37.6843L34.1849 37.778L34.0763 37.8707L33.9669 37.9623L33.8563 38.053L33.7449 38.1425L33.6323 38.231L33.5187 38.3185L33.4043 38.405L33.2888 38.4903L33.1724 38.5747L33.0551 38.658L32.9368 38.74L32.8176 38.821L32.6974 38.9009L32.5763 38.9797L32.4544 39.0573L32.3317 39.1338L32.2079 39.209L32.0835 39.2832L31.9581 39.3561L31.8319 39.4279L31.7049 39.4984L31.577 39.5679L31.4484 39.636L31.319 39.703L31.1887 39.7686L31.0578 39.8331L30.9261 39.8964L30.7936 39.9583L30.6604 40.019L30.5266 40.0784L30.392 40.1366L30.2567 40.1934L30.1208 40.249L29.9842 40.3033L29.8469 40.3563L29.7091 40.408L29.5706 40.4583L29.4315 40.5073L29.2917 40.5549L29.1515 40.6013L29.0106 40.6461L28.8692 40.6898L28.7273 40.7321L28.5848 40.7729L28.4418 40.8124L28.2983 40.8505L28.1543 40.8872L28.0099 40.9225L27.865 40.9565L27.7195 40.989L27.5738 41.0201L27.4276 41.0498L27.281 41.0781L27.1341 41.105L26.9867 41.1305L26.839 41.1544L26.691 41.1769L26.5426 41.1981L26.3938 41.2177L26.2449 41.236L26.0957 41.2527L25.9461 41.2681L25.7963 41.2819L25.6463 41.2943L25.4961 41.3052L25.3457 41.3147L25.195 41.3226L25.0442 41.3291L24.8932 41.3341L24.742 41.3376L24.5908 41.3397L24.4393 41.3402L24.2878 41.3393L24.1363 41.3368L23.9846 41.333L23.8329 41.3275L23.6812 41.3206L23.5294 41.3122L23.3777 41.3023L23.2259 41.2909L23.0742 41.278L22.9225 41.2635L22.7708 41.2476L22.6192 41.2302L22.4677 41.2114L22.3162 41.1909L22.165 41.169L22.0138 41.1456L21.8628 41.1207L21.7119 41.0942L21.5612 41.0664L21.4108 41.0369L21.2605 41.0059L21.1104 40.9735L20.9607 40.9397L20.8111 40.9042L20.6618 40.8673L20.5128 40.8289L20.3641 40.789L20.2157 40.7476L20.0677 40.7048L19.92 40.6605L19.7726 40.6147L19.6257 40.5673L19.4792 40.5185L19.3329 40.4683L19.1873 40.4166L19.042 40.3634L18.8971 40.3088L18.7528 40.2526L18.609 40.1951L18.4655 40.136L18.3227 40.0756L18.1804 40.0138L18.0387 39.9504L17.8975 39.8856L17.7569 39.8194L17.6169 39.7518L17.4775 39.6827L17.3386 39.6123L17.2005 39.5405L17.063 39.4672L16.9262 39.3925L16.7901 39.3165L16.6546 39.239L16.5199 39.1602L16.3859 39.08L16.2526 38.9984L16.1201 38.9156L15.9884 38.8313L15.8575 38.7457L15.7274 38.6586L15.598 38.5704L15.4695 38.4808L15.3419 38.3899L15.2151 38.2976L15.0892 38.2041L14.9641 38.1092L14.84 38.0131L14.7168 37.9157L14.5945 37.8169L14.4732 37.7171L14.3527 37.6158L14.2333 37.5134L14.1149 37.4097L13.9974 37.3048L13.8809 37.1986L13.7655 37.0914L13.6511 36.9829L13.5377 36.8731L13.4254 36.7622L13.3143 36.6501L13.2042 36.5368L13.0951 36.4225L12.9871 36.3069L12.8804 36.1904L12.7748 36.0725L12.6702 35.9536L12.5669 35.8336L12.4646 35.7126L12.3637 35.5905L12.2638 35.4672L12.1653 35.343L12.0679 35.2176L11.9718 35.0913L11.8769 34.9639L11.7832 34.8356L11.6908 34.7062L11.5998 34.5758L11.5099 34.4444L11.4213 34.3122L11.3341 34.179L11.2482 34.0448L11.1637 33.9097L11.0804 33.7736L10.9985 33.6367L10.918 33.499L10.8389 33.3602L10.7611 33.2208L10.6847 33.0804L10.6097 32.9392L10.5361 32.7972L10.4639 32.6543L10.3932 32.5107L10.3239 32.3663L10.256 32.2211L10.1896 32.0751L10.1247 31.9285L10.0612 31.7811L9.9992 31.633L9.93867 31.4842L9.87966 31.3348L9.82214 31.1846L9.76613 31.0338L9.71163 30.8824L9.65866 30.7302L9.60723 30.5776L9.55733 30.4243L9.50898 30.2705L9.46218 30.1161L9.41695 29.9611L9.37327 29.8057L9.33117 29.6497L9.29066 29.4931L9.25173 29.3361L9.21438 29.1786L9.17864 29.0207L9.14449 28.8623L9.11196 28.7035L9.08104 28.5443L9.05173 28.3847L9.02405 28.2247L8.998 28.0643L8.97358 27.9036L8.9508 27.7426L8.92966 27.5813L8.91017 27.4196L8.89233 27.2576L8.87614 27.0955L8.8616 26.933L8.84874 26.7702L8.83754 26.6074L8.82799 26.4442L8.82013 26.2809L8.81393 26.1175L8.80942 25.9539L8.80658 25.7901L8.80542 25.6261L8.80596 25.4622L8.80816 25.2981L8.81207 25.134L8.81765 24.9698L8.82493 24.8055L8.83391 24.6413L8.84457 24.4769L8.85693 24.3127L8.87098 24.1484L8.88673 23.9843L8.90418 23.8201L8.92332 23.6561L8.94416 23.4922L8.96669 23.3283L8.99092 23.1646L9.01685 23.001L9.04447 22.8376L9.07379 22.6744L9.1048 22.5114L9.1375 22.3485L9.17189 22.186L9.20798 22.0236L9.24575 21.8616L9.28521 21.6998L9.32634 21.5383L9.36917 21.3772L9.41367 21.2163L9.45985 21.0558L9.50772 20.8957L9.55724 20.7359L9.60845 20.5765L9.66131 20.4176L9.71583 20.2591L9.77202 20.101L9.82987 19.9434L9.88935 19.7863L9.95049 19.6297L10.0133 19.4735L10.0777 19.318L10.1438 19.163L10.2114 19.0084L10.2808 18.8546L10.3517 18.7013L10.4242 18.5485L10.4984 18.3965L10.5741 18.2451L10.6515 18.0943L10.7304 17.9443L10.8109 17.7949L10.8931 17.6463L10.9767 17.4983L11.062 17.351L11.1488 17.2047L11.2372 17.059L11.327 16.9141L11.4185 16.77L11.5115 16.6267L11.606 16.4843L11.7019 16.3427L11.7995 16.2021L11.8985 16.0622L11.999 15.9232L12.101 15.7852L12.2044 15.6481L12.3094 15.5119L12.4158 15.3767L12.5236 15.2425L12.6328 15.1093L12.7435 14.9771L12.8557 14.8458L12.9692 14.7156L13.0841 14.5865L13.2004 14.4584L13.318 14.3314L13.4371 14.2055L13.5576 14.0806L13.6793 13.9569L13.8024 13.8343L13.9268 13.7129L14.0526 13.5926L14.1796 13.4734L14.3079 13.3556L14.4376 13.2388L14.5685 13.1233L14.7005 13.009L14.834 12.8959L14.9686 12.7841L15.1044 12.6735L15.2415 12.5642L15.3798 12.4563L15.5192 12.3496L15.6598 12.2442L15.8016 12.1401L15.9444 12.0374L16.0884 11.936L16.2336 11.836L16.3799 11.7374L16.5271 11.6402L16.6757 11.5443L16.8251 11.4499L16.9757 11.3569L17.1273 11.2653L17.2799 11.1751L17.4334 11.0864L17.588 10.9992L17.7436 10.9134L17.9001 10.8291L18.0576 10.7463L18.216 10.665L18.3753 10.5852L18.5355 10.507L18.6967 10.4302L18.8587 10.355L19.0216 10.2814L19.1853 10.2093L19.3499 10.1388L19.5152 10.0699L19.6813 10.0026L19.8482 9.93683L20.0159 9.87269L20.1843 9.81017L20.3535 9.74927L20.5234 9.69L20.694 9.63236L20.8652 9.57637L21.037 9.52204L21.2096 9.46936L21.3828 9.41835L21.5567 9.36902L21.731 9.32136L21.906 9.2754L22.0816 9.23112L22.2577 9.18855L22.4343 9.1477L22.6115 9.10854L22.7891 9.07111L22.9671 9.03541L23.1458 9.00144L23.3248 8.9692L23.5042 8.9387L23.6841 8.90995L23.8643 8.88295L24.0449 8.85771L24.2258 8.83422L24.2933 8.82613ZM24.3696 15.2683L24.3176 10.8772L24.1693 10.8979L24.0099 10.9218L23.8503 10.9473L23.6918 10.9742L23.5331 11.0028L23.3751 11.0329L23.2175 11.0645L23.0604 11.0975L22.9037 11.1322L22.7474 11.1684L22.5915 11.206L22.4362 11.2452L22.2811 11.2859L22.1321 11.3266L21.9734 11.3717L21.8201 11.4168L21.6675 11.4634L21.5157 11.5114L21.3642 11.5609L21.2133 11.6119L21.063 11.6643L20.9136 11.7181L20.7648 11.7734L20.6166 11.83L20.469 11.8882L20.3225 11.9476L20.176 12.0086L20.0307 12.0709L19.886 12.1346L19.7424 12.1996L19.5991 12.266L19.4566 12.3339L19.3153 12.4029L19.1743 12.4734L19.0348 12.5451L18.8954 12.6184L18.7575 12.6926L18.6198 12.7686L18.4834 12.8455L18.3479 12.9238L18.2132 13.0034L18.0794 13.0842L17.9463 13.1665L17.8146 13.2497L17.6835 13.3343L17.5536 13.4201L17.4246 13.5071L17.2966 13.5954L17.1693 13.6849L17.0435 13.7752L16.9184 13.8672L16.7943 13.9601L16.6713 14.0542L16.5495 14.1493L16.4285 14.2458L16.3088 14.3432L16.1902 14.4417L16.0725 14.5416L15.9562 14.6422L15.8408 14.7441L15.7265 14.8471L15.6134 14.9509L15.5016 15.0558L15.3905 15.1619L15.2811 15.2688L15.1727 15.3767L15.0653 15.4858L14.9593 15.5957L14.8544 15.7067L14.7508 15.8185L14.6484 15.9313L14.5471 16.045L14.447 16.1598L14.3486 16.2751L14.2511 16.3916L14.1549 16.509L14.06 16.6271L13.9665 16.7459L13.874 16.8659L13.7829 16.9865L13.6932 17.108L13.6048 17.2302L13.5176 17.3533L13.4319 17.4769L13.3475 17.6015L13.2643 17.7268L13.1825 17.8529L13.1021 17.9794L13.0232 18.1068L12.9454 18.2351L12.8691 18.3638L12.7942 18.4932L12.7205 18.6233L12.6485 18.7538L12.5777 18.8851L12.5082 19.0172L12.4403 19.1494L12.3737 19.2826L12.3086 19.4163L12.2449 19.5502L12.1826 19.685L12.1217 19.8201L12.0623 19.9558L12.0042 20.0919L11.9477 20.2285L11.8926 20.3656L11.8388 20.5032L11.7866 20.6411L11.7359 20.7794L11.6865 20.9183L11.6387 21.0573L11.5923 21.1968L11.5474 21.3367L11.5038 21.4769L11.4619 21.6174L11.4213 21.7582L11.3824 21.8992L11.3448 22.0407L11.3087 22.1823L11.2741 22.3242L11.241 22.4664L11.2093 22.6086L11.1791 22.7513L11.1505 22.894L11.1233 23.0368L11.0976 23.18L11.0734 23.3232L11.0507 23.4666L11.0294 23.6099L11.0097 23.7535L10.9914 23.8972L10.9747 24.0409L10.9594 24.1847L10.9456 24.3285L10.9333 24.4724L10.9225 24.6161L10.9131 24.7601L10.9053 24.904L10.8989 25.0477L10.894 25.1915L10.8906 25.3351L10.8886 25.4788L10.8882 25.6224L10.8892 25.7658L10.8917 25.9091L10.8956 26.0523L10.901 26.1952L10.9079 26.3382L10.9163 26.4809L10.9261 26.6233L10.9373 26.7657L10.95 26.9077L10.9642 27.0496L10.9798 27.1911L10.9968 27.3325L11.0153 27.4736L11.0352 27.6143L11.0566 27.7549L11.0793 27.8949L11.1035 28.0348L11.1291 28.1743L11.1561 28.3133L11.1846 28.4522L11.2144 28.5905L11.2456 28.7285L11.2782 28.8659L11.3123 29.0031L11.3476 29.1398L11.3844 29.276L11.4225 29.4117L11.462 29.5471L11.5028 29.6818L11.5451 29.8161L11.5886 29.95L11.6335 30.0832L11.6798 30.2158L11.7273 30.348L11.7761 30.4796L11.8263 30.6106L11.8778 30.7409L11.9305 30.8707L11.9846 30.9999L12.04 31.1284L12.0967 31.2563L12.1545 31.3835L12.2137 31.51L12.2742 31.6359L12.3358 31.7611L12.3987 31.8856L12.4628 32.0094L12.5282 32.1325L12.5948 32.2548L12.6625 32.3764L12.7315 32.4972L12.8016 32.6172L12.8729 32.7364L12.9454 32.8549L13.0191 32.9725L13.0938 33.0893L13.1699 33.2055L13.2468 33.3205L13.3251 33.4349L13.4043 33.5483L13.4848 33.6609L13.5662 33.7726L13.6488 33.8834L13.7325 33.9933L13.8173 34.1024L13.9029 34.2105L13.9898 34.3176L14.0776 34.4239L14.1665 34.5292L14.2563 34.6334L14.3473 34.7369L14.4391 34.8392L14.5319 34.9407L14.6257 35.041L14.7204 35.1405L14.8161 35.2389L14.9128 35.3363L15.0103 35.4326L15.1088 35.528L15.2083 35.6223L15.3084 35.7155L15.4096 35.8077L15.5116 35.8988L15.6144 35.9888L15.7182 36.0777L15.8227 36.1656L15.928 36.2524L16.0342 36.338L16.1411 36.4225L16.2488 36.5059L16.3574 36.5883L16.4667 36.6694L16.5766 36.7494L16.6873 36.8283L16.7987 36.906L16.9109 36.9826L17.0238 37.0581L17.1374 37.1323L17.2516 37.2054L17.3665 37.2773L17.4819 37.348L17.598 37.4175L17.7149 37.4858L17.8321 37.5529L17.9502 37.6188L18.0686 37.6834L18.1878 37.7469L18.3075 37.8092L18.4276 37.8701L18.5484 37.93L18.6698 37.9885L18.7915 38.0459L18.9136 38.1019L19.0365 38.1568L19.1595 38.2104L19.2832 38.2626L19.4073 38.3138L19.5318 38.3635L19.6566 38.4121L19.7819 38.4593L19.9076 38.5054L20.0336 38.5501L20.16 38.5935L20.2868 38.6358L20.4138 38.6766L20.5412 38.7163L20.669 38.7546L20.7969 38.7916L20.9251 38.8274L21.0536 38.8618L21.1824 38.8951L21.3113 38.9269L21.4405 38.9575L21.57 38.9868L21.6996 39.0149L21.8294 39.0416L21.9593 39.0669L22.0895 39.091L22.2196 39.1139L22.3501 39.1355L22.4806 39.1556L22.6111 39.1746L22.7418 39.1922L22.8725 39.2085L23.0033 39.2235L23.1341 39.2373L23.265 39.2497L23.3959 39.2608L23.5268 39.2706L23.6577 39.2792L23.7885 39.2864L23.9193 39.2924L24.0502 39.2971L24.1809 39.3005L24.3115 39.3025L24.442 39.3033L24.5725 39.3029L24.7028 39.301L24.833 39.2981L24.9631 39.2938L25.0931 39.2882L25.2227 39.2813L25.3523 39.2732L25.4816 39.2638L25.6108 39.2531L25.7396 39.2411L25.8684 39.228L25.9969 39.2135L26.1251 39.1979L26.253 39.1809L26.3807 39.1629L26.5081 39.1434L26.6351 39.1227L26.7617 39.1009L26.8882 39.0777L27.0142 39.0534L27.1399 39.028L27.2653 39.0011L27.3901 38.9732L27.5146 38.9441L27.6387 38.9136L27.7625 38.8822L27.8858 38.8494L28.0086 38.8155L28.131 38.7804L28.2529 38.7441L28.3743 38.7067L28.4952 38.6681L28.6158 38.6283L28.7357 38.5874L28.8551 38.5454L28.974 38.5022L29.0923 38.4579L29.21 38.4124L29.3271 38.3658L29.4438 38.3181L29.5599 38.2693L29.6752 38.2194L29.7901 38.1685L29.9042 38.1165L30.0178 38.0633L30.1308 38.0091L30.2428 37.954L30.3546 37.8975L30.4654 37.8402L30.5758 37.7817L30.6851 37.7224L30.794 37.6619L30.9021 37.6005L31.0094 37.538L31.1161 37.4744L31.222 37.41L31.327 37.3446L31.4316 37.2781L31.535 37.2108L31.6378 37.1424L31.74 37.073L31.8411 37.0027L31.9413 36.9317L32.0411 36.8594L32.1398 36.7866L32.2377 36.7126L32.3349 36.6377L32.4308 36.5622L32.5263 36.4855L32.6209 36.408L32.7142 36.3298L32.8071 36.2504L32.8988 36.1705L32.9896 36.0898L33.0799 36.0079L33.1687 35.9256L33.2569 35.8423L33.3442 35.7582L33.4303 35.6734L33.5157 35.5877L33.6001 35.5014L33.6835 35.4142L33.7658 35.3264L33.8473 35.2377L33.9278 35.1484L34.0071 35.0585L34.0858 34.9676L34.1632 34.8763L34.2395 34.7842L34.3151 34.6913L34.3894 34.5981L34.4628 34.5039L34.5352 34.4092L34.6066 34.3138L34.6768 34.2179L34.7459 34.1215L34.8142 34.0241L34.8812 33.9265L34.9473 33.8282L35.0124 33.7292L35.076 33.63L35.139 33.53L35.2007 33.4294L35.2613 33.3285L35.3208 33.2271L35.3794 33.1249L35.4366 33.0227L35.4929 32.9196L35.5481 32.8163L35.6019 32.7125L35.655 32.608L35.7066 32.5036L35.7574 32.3982L35.8067 32.2931L35.8553 32.1868L35.9024 32.0808L35.9486 31.9739L35.9936 31.8671L36.0374 31.7598L36.0801 31.6521L36.1217 31.544L36.1619 31.4359L36.2013 31.3272L36.2393 31.2183L36.2762 31.1092L36.312 30.9998L36.3467 30.89L36.3802 30.7801L36.4125 30.6701L36.4436 30.5597L36.4735 30.4492L36.5024 30.3384L36.53 30.2275L36.5565 30.1166L36.5818 30.0051L36.6059 29.8938L36.629 29.7823L36.6507 29.6708L36.6713 29.5591L36.6908 29.4469L36.7091 29.3352L36.7262 29.2232L36.7421 29.111L36.7569 28.9991L36.7706 28.8869L36.7831 28.7744L36.7943 28.6627L36.8045 28.5501L36.8135 28.438L36.8212 28.326L36.8279 28.2138L36.8334 28.1017L36.8377 27.9898L36.8409 27.8775L36.8428 27.7659L36.8437 27.6539L36.8434 27.5422L36.842 27.4305L36.8394 27.3192L36.8357 27.2077L36.8308 27.0965L36.8248 26.9857L36.8176 26.8746L36.8093 26.7638L36.8 26.6535L36.7894 26.543L36.7777 26.4331L36.7649 26.323L36.751 26.2134L36.736 26.104L36.7199 25.9947L36.7026 25.8858L36.6843 25.7773L36.6649 25.669L36.6443 25.561L36.6226 25.453L36.5999 25.3457L36.5761 25.2388L36.5512 25.1319L36.5252 25.0254L36.4983 24.9197L36.4701 24.8136L36.441 24.7085L36.4108 24.6035L36.3795 24.4992L36.3473 24.395L36.3138 24.2913L36.2795 24.1882L36.2442 24.0855L36.2076 23.9829L36.1703 23.8811L36.1318 23.7797L36.0924 23.6789L36.0519 23.5783L36.0104 23.4782L35.9681 23.379L35.9245 23.2799L35.8802 23.1816L35.8349 23.0839L35.7885 22.9864L35.7411 22.8894L35.6931 22.7934L35.6437 22.6976L35.5937 22.6027L35.5427 22.5084L35.4907 22.4142L35.4379 22.3211L35.3841 22.2284L35.3294 22.1365L35.2737 22.0449L35.2175 21.9543L35.16 21.864L35.1019 21.7747L35.0428 21.6859L34.9829 21.5979L34.922 21.5102L34.8604 21.4235L34.7982 21.3376L34.7348 21.2521L34.6708 21.1675L34.6058 21.0835L34.5403 21.0005L34.4737 20.9179L34.4065 20.8361L34.3384 20.7551L34.2696 20.6748L34.2002 20.5955L34.1298 20.5166L34.0588 20.4388L33.987 20.3615L33.9148 20.2854L33.8413 20.2096L33.7676 20.1349L33.6928 20.0607L33.6176 19.9876L33.5418 19.9153L33.4652 19.8438L33.3878 19.773L33.3099 19.7032L33.2313 19.6342L33.1519 19.5658L33.0725 19.4988L32.9919 19.4321L32.9109 19.3665L32.8293 19.3018L32.747 19.2377L32.6643 19.1748L32.5812 19.1129L32.4971 19.0515L32.4125 18.9909L32.3278 18.9317L32.242 18.873L32.1563 18.8156L32.0699 18.7588L31.9828 18.7029L31.8952 18.6479L31.8075 18.594L31.7188 18.5408L31.6301 18.4888L31.5406 18.4374L31.4511 18.3873L31.3609 18.338L31.2702 18.2894L31.1792 18.2419L31.0879 18.1956L30.9961 18.1499L30.9038 18.1052L30.8115 18.0616L30.7188 18.019L30.6252 17.9771L30.532 17.9364L30.4382 17.8966L30.3438 17.8576L30.2494 17.8198L30.1549 17.783L30.0599 17.7471L29.9643 17.7119L29.869 17.6781L29.7731 17.645L29.6769 17.613L29.5809 17.5819L29.4844 17.5519L29.3879 17.5229L29.2907 17.4947L29.1937 17.4676L29.0966 17.4415L28.9992 17.4164L28.9017 17.3922L28.8037 17.369L28.706 17.3468L28.6083 17.3257L28.5101 17.3055L28.4117 17.2861L28.3138 17.2681L28.2153 17.2508L28.117 17.2346L28.0183 17.2192L27.9201 17.205L27.8211 17.1916L27.7228 17.1794L27.6242 17.1681L27.5256 17.1577L27.427 17.1484L27.3283 17.14L27.23 17.1326L27.1311 17.1263L27.0327 17.1208L26.9345 17.1164L26.8357 17.1129L26.7376 17.1104L26.6394 17.1089L26.5413 17.1083L26.4743 17.1085L26.5251 21.3988L26.5554 21.3989L26.6118 21.3997L26.6683 21.401L26.7249 21.4029L26.7815 21.4055L26.8382 21.4085L26.8949 21.4122L26.9517 21.4165L27.0085 21.4214L27.0654 21.4268L27.1224 21.4329L27.1793 21.4394L27.2363 21.4467L27.2933 21.4546L27.3503 21.463L27.4074 21.4721L27.4644 21.4817L27.5213 21.4919L27.5784 21.5029L27.6353 21.5142L27.6923 21.5264L27.7492 21.539L27.8061 21.5523L27.8628 21.5661L27.9196 21.5806L27.9763 21.5957L28.0329 21.6114L28.0895 21.6276L28.146 21.6446L28.2024 21.6621L28.2586 21.6802L28.3149 21.699L28.3709 21.7183L28.4269 21.7382L28.4827 21.7588L28.5384 21.7799L28.594 21.8016L28.6494 21.824L28.7046 21.8469L28.7598 21.8705L28.8148 21.8947L28.8695 21.9194L28.9242 21.9448L28.9786 21.9708L29.0328 21.9973L29.0869 22.0244L29.1407 22.0523L29.1943 22.0806L29.2477 22.1096L29.3009 22.1391L29.3538 22.1692L29.4066 22.1999L29.459 22.2311L29.5112 22.2631L29.5632 22.2956L29.6149 22.3286L29.6662 22.3622L29.7174 22.3964L29.7683 22.4313L29.8188 22.4666L29.8691 22.5025L29.9191 22.539L29.9687 22.576L30.0181 22.6136L30.067 22.6518L30.1158 22.6906L30.1641 22.7299L30.212 22.7697L30.2598 22.8101L30.307 22.851L30.354 22.8925L30.4006 22.9346L30.4467 22.9772L30.4925 23.0202L30.5378 23.0639L30.5829 23.1081L30.6275 23.1527L30.6717 23.198L30.7156 23.2436L30.7588 23.2899L30.8018 23.3367L30.8443 23.384L30.8865 23.4317L30.9281 23.48L30.9692 23.5288L31.01 23.578L31.0502 23.6277L31.09 23.678L31.1293 23.7286L31.1682 23.7799L31.2066 23.8315L31.2444 23.8836L31.2817 23.9361L31.3186 23.9892L31.355 24.0427L31.3908 24.0967L31.4261 24.151L31.461 24.2059L31.4952 24.2611L31.529 24.3168L31.5621 24.373L31.5948 24.4294L31.6269 24.4864L31.6584 24.5438L31.6894 24.6015L31.7199 24.6597L31.7496 24.7182L31.779 24.7771L31.8076 24.8364L31.8357 24.8961L31.8632 24.9561L31.8901 25.0166L31.9165 25.0774L31.9421 25.1385L31.9673 25.2L31.9917 25.2618L32.0156 25.324L32.0388 25.3865L32.0615 25.4493L32.0834 25.5125L32.1048 25.5759L32.1254 25.6397L32.1454 25.7038L32.1649 25.7681L32.1836 25.8327L32.2017 25.8977L32.2192 25.9629L32.236 26.0283L32.252 26.0941L32.2675 26.1601L32.2823 26.2263L32.2963 26.2929L32.3098 26.3596L32.3224 26.4264L32.3344 26.4936L32.3458 26.561L32.3565 26.6285L32.3663 26.6964L32.3756 26.7643L32.3841 26.8325L32.3919 26.9009L32.3991 26.9694L32.4054 27.0381L32.4111 27.1069L32.4161 27.176L32.4203 27.2451L32.4238 27.3144L32.4266 27.3839L32.4287 27.4534L32.43 27.5231L32.4307 27.5929L32.4304 27.6626L32.4296 27.7326L32.4281 27.8027L32.4257 27.8729L32.4226 27.9431L32.4187 28.0133L32.4142 28.0836L32.4088 28.154L32.4027 28.2244L32.3959 28.2949L32.3884 28.3654L32.38 28.4358L32.3709 28.5064L32.3611 28.5769L32.3506 28.6474L32.3392 28.7179L32.327 28.7883L32.3142 28.8588L32.3006 28.9292L32.2862 28.9996L32.271 29.0699L32.2551 29.1401L32.2385 29.2104L32.221 29.2805L32.2028 29.3506L32.184 29.4205L32.1642 29.4904L32.1437 29.56L32.1225 29.6297L32.1006 29.6992L32.0778 29.7685L32.0543 29.8379L32.0301 29.9069L32.005 29.9758L31.9792 30.0447L31.9527 30.1132L31.9254 30.1817L31.8974 30.2499L31.8686 30.318L31.8391 30.3858L31.8087 30.4535L31.7777 30.5209L31.7459 30.5881L31.7133 30.6551L31.6801 30.7218L31.646 30.7883L31.6112 30.8546L31.5757 30.9205L31.5394 30.9861L31.5025 31.0516L31.4648 31.1167L31.4262 31.1816L31.3871 31.246L31.3471 31.3104L31.3066 31.3742L31.2652 31.4377L31.2231 31.501L31.1803 31.5639L31.1368 31.6265L31.0926 31.6886L31.0476 31.7505L31.002 31.8119L30.9557 31.873L30.9086 31.9336L30.8609 31.994L30.8125 32.0539L30.7634 32.1133L30.7136 32.1724L30.6632 32.231L30.6119 32.2892L30.5601 32.3469L30.5076 32.4043L30.4544 32.4611L30.4007 32.5175L30.3461 32.5735L30.291 32.629L30.2352 32.6839L30.1788 32.7384L30.1217 32.7924L30.064 32.8458L30.0057 32.8988L29.9467 32.9513L29.8871 33.0032L29.8269 33.0546L29.7661 33.1054L29.7046 33.1557L29.6426 33.2055L29.58 33.2546L29.5168 33.3032L29.4531 33.3513L29.3886 33.3988L29.3237 33.4456L29.2582 33.4918L29.1921 33.5376L29.1254 33.5826L29.0583 33.6272L28.9906 33.6709L28.9223 33.7142L28.8534 33.7568L28.7841 33.7988L28.7142 33.84L28.6438 33.8807L28.5729 33.9207L28.5015 33.96L28.4296 33.9988L28.3573 34.0367L28.2844 34.0741L28.211 34.1107L28.1373 34.1467L28.0629 34.1819L27.9882 34.2165L27.913 34.2504L27.8374 34.2834L27.7613 34.3159L27.6849 34.3476L27.6079 34.3785L27.5306 34.4088L27.4528 34.4383L27.3746 34.4671L27.2961 34.4951L27.2173 34.5224L27.1379 34.5489L27.0583 34.5747L26.9783 34.5996L26.8979 34.6238L26.8171 34.6473L26.7361 34.6699L26.6548 34.6918L26.5731 34.7129L26.491 34.7332L26.4086 34.7526L26.326 34.7714L26.2431 34.7892L26.1599 34.8064L26.0763 34.8226L25.9926 34.8381L25.9086 34.8527L25.8243 34.8666L25.7399 34.8796L25.6551 34.8917L25.5702 34.9031L25.485 34.9137L25.3996 34.9233L25.3141 34.9321L25.2283 34.9401L25.1424 34.9472L25.0562 34.9535L24.9699 34.9589L24.8835 34.9635L24.7969 34.9673L24.7102 34.9701L24.6233 34.9721L24.5363 34.9732L24.4493 34.9735L24.3621 34.973L24.2749 34.9715L24.1875 34.9691L24.1001 34.9659L24.0126 34.9618L23.925 34.9568L23.8374 34.951L23.7498 34.9443L23.6621 34.9367L23.5744 34.9282L23.4868 34.9189L23.3991 34.9085L23.3115 34.8974L23.2237 34.8854L23.1361 34.8725L23.0485 34.8586L22.961 34.844L22.8735 34.8284L22.7861 34.8119L22.6987 34.7947L22.6115 34.7764L22.5243 34.7573L22.4373 34.7372L22.3503 34.7163L22.2634 34.6946L22.1767 34.6718L22.0902 34.6482L22.0037 34.6238L21.9176 34.5984L21.8315 34.5722L21.7456 34.545L21.6599 34.5171L21.5743 34.4882L21.4891 34.4584L21.404 34.4277L21.3191 34.3961L21.2345 34.3638L21.1501 34.3305L21.066 34.2963L20.9821 34.2613L20.8986 34.2254L20.8153 34.1885L20.7323 34.1509L20.6496 34.1124L20.5671 34.073L20.4851 34.0327L20.4034 33.9916L20.322 33.9497L20.241 33.9068L20.1603 33.8632L20.08 33.8186L20.0001 33.7733L19.9204 33.7271L19.8413 33.68L19.7626 33.6322L19.6843 33.5834L19.6063 33.5339L19.5288 33.4835L19.4518 33.4323L19.3752 33.3802L19.2992 33.3274L19.2235 33.2738L19.1483 33.2193L19.0736 33.164L18.9994 33.108L18.9258 33.0511L18.8526 32.9934L18.78 32.935L18.7078 32.8758L18.6362 32.8158L18.5652 32.755L18.4948 32.6934L18.4249 32.6311L18.3556 32.5681L18.2868 32.5042L18.2186 32.4397L18.1511 32.3743L18.0841 32.3083L18.0178 32.2415L17.9521 32.174L17.887 32.1057L17.8226 32.0368L17.7588 31.9671L17.6958 31.8967L17.6333 31.8257L17.5716 31.7539L17.5104 31.6815L17.45 31.6083L17.3903 31.5344L17.3313 31.46L17.273 31.3849L17.2154 31.3091L17.1586 31.2326L17.1026 31.1556L17.0473 31.0779L16.9926 30.9994L16.9387 30.9205L16.8857 30.8409L16.8334 30.7607L16.7819 30.6799L16.7311 30.5985L16.6812 30.5166L16.632 30.434L16.5837 30.3509L16.5362 30.2672L16.4895 30.183L16.4436 30.0982L16.3986 30.0129L16.3544 29.9269L16.311 29.8406L16.2685 29.7538L16.2269 29.6663L16.1861 29.5784L16.1462 29.49L16.1073 29.4011L16.0691 29.3117L16.0318 29.2219L15.9954 29.1316L15.96 29.0409L15.9254 28.9497L15.8919 28.8581L15.8592 28.766L15.8274 28.6736L15.7965 28.5808L15.7666 28.4875L15.7376 28.3939L15.7095 28.2999L15.6824 28.2055L15.6562 28.1107L15.6311 28.0156L15.6068 27.9201L15.5836 27.8243L15.5613 27.7283L15.54 27.6318L15.5196 27.5351L15.5003 27.4381L15.4819 27.3408L15.4645 27.2432L15.4482 27.1454L15.4328 27.0473L15.4184 26.9489L15.405 26.8504L15.3927 26.7515L15.3813 26.6525L15.371 26.5532L15.3617 26.4538L15.3534 26.3541L15.3461 26.2543L15.3399 26.1543L15.3346 26.0542L15.3304 25.954L15.3273 25.8535L15.3252 25.753L15.3242 25.6524L15.3241 25.5516L15.3251 25.4507L15.3273 25.3498L15.3303 25.2488L15.3345 25.1476L15.3398 25.0465L15.346 24.9454L15.3533 24.8441L15.3617 24.7429L15.3711 24.6416L15.3816 24.5404L15.3932 24.4391L15.4058 24.3379L15.4194 24.2367L15.4342 24.1356L15.45 24.0344L15.4669 23.9334L15.4848 23.8324L15.5037 23.7315L15.5238 23.6307L15.545 23.53L15.5671 23.4294L15.5903 23.329L15.6146 23.2288L15.64 23.1285L15.6665 23.0285L15.694 22.9288L15.7225 22.8291L15.752 22.7296L15.7827 22.6304L15.8144 22.5313L15.8471 22.4324L15.881 22.3339L15.9159 22.2355L15.9518 22.1374L15.9887 22.0396L16.0268 21.9421L16.0659 21.8448L16.106 21.7477L16.1471 21.6511L16.1893 21.5548L16.2326 21.4588L16.2768 21.3631L16.3221 21.2677L16.3684 21.1728L16.4158 21.0782L16.4641 20.984L16.5135 20.8902L16.5638 20.7968L16.6153 20.7039L16.6677 20.6113L16.7211 20.5191L16.7755 20.4275L16.831 20.3363L16.8874 20.2455L16.9449 20.1552L17.0033 20.0653L17.0626 19.976L17.1229 19.8873L17.1843 19.799L17.2466 19.7113L17.3099 19.6241L17.3741 19.5374L17.4392 19.4513L17.5053 19.3658L17.5724 19.2808L17.6404 19.1965L17.7094 19.1126L17.7792 19.0296L17.85 18.9469L17.9217 18.865L17.9943 18.7838L18.0678 18.7031L18.1423 18.6232L18.2176 18.5439L18.2938 18.4652L18.3709 18.3873L18.4488 18.31L18.5277 18.2334L18.6074 18.1576L18.6879 18.0825L18.7693 18.0081L18.8515 17.9344L18.9345 17.8615L19.0185 17.7894L19.1032 17.718L19.1887 17.6474L19.275 17.5776L19.3621 17.5085L19.45 17.4404L19.5387 17.373L19.6282 17.3064L19.7184 17.2406L19.8094 17.1757L19.9011 17.1116L19.9936 17.0483L20.0869 16.9859L20.1808 16.9244L20.2754 16.8639L20.3709 16.8041L20.4669 16.7452L20.5637 16.6873L20.6611 16.6302L20.7593 16.5741L20.8581 16.5189L20.9575 16.4646L21.0576 16.4113L21.1583 16.3589L21.2596 16.3074L21.3616 16.2569L21.4642 16.2074L21.5674 16.1589L21.6711 16.1113L21.7754 16.0647L21.8803 16.0191L21.9859 15.9744L22.0919 15.9308L22.1984 15.8883L22.3056 15.8467L22.4132 15.8061L22.5212 15.7666L22.6299 15.7282L22.7391 15.6907L22.8486 15.6543L22.9587 15.619L23.0692 15.5847L23.1802 15.5515L23.2916 15.5193L23.4034 15.4883L23.5157 15.4583L23.6283 15.4293L23.7413 15.4015L23.8548 15.3748L23.9686 15.3492L24.0827 15.3247L24.1973 15.3013L24.312 15.279L24.3696 15.2683ZM25.7809 23.5186L24.4711 23.8316L24.3942 17.3435L24.3325 17.3574L24.2395 17.3793L24.1467 17.4022L24.0545 17.4258L23.9625 17.4504L23.871 17.4758L23.7795 17.5023L23.689 17.5293L23.5982 17.5575L23.5085 17.5863L23.4186 17.6161L23.3293 17.6468L23.2404 17.6783L23.1519 17.7106L23.0642 17.7436L22.9766 17.7777L22.8894 17.8125L22.8028 17.8481L22.7163 17.8847L22.631 17.9217L22.5457 17.9599L22.4611 17.9986L22.3767 18.0384L22.2931 18.0788L22.2096 18.12L22.1271 18.1619L22.045 18.2047L21.9634 18.2482L21.8824 18.2924L21.8018 18.3374L21.7218 18.3832L21.6427 18.4296L21.5635 18.4769L21.4853 18.5248L21.4078 18.5734L21.3308 18.6227L21.2542 18.6729L21.1784 18.7236L21.1032 18.7751L21.0285 18.8272L20.9546 18.8799L20.8811 18.9334L20.8084 18.9876L20.7363 19.0424L20.6649 19.0979L20.5942 19.1538L20.5242 19.2105L20.4546 19.2679L20.3858 19.3259L20.3178 19.3843L20.2504 19.4435L20.1837 19.5032L20.1177 19.5635L20.0524 19.6246L19.9878 19.686L19.924 19.748L19.8607 19.8107L19.7983 19.8738L19.7366 19.9375L19.6757 20.0016L19.6152 20.0666L19.5558 20.1317L19.497 20.1975L19.439 20.2639L19.3818 20.3305L19.3252 20.3979L19.2696 20.4654L19.2145 20.5338L19.1604 20.6023L19.1069 20.6715L19.0543 20.7411L19.0025 20.811L18.9513 20.8814L18.9011 20.9522L18.8516 21.0235L18.8028 21.0951L18.755 21.1673L18.7079 21.2396L18.6617 21.3123L18.6161 21.3856L18.5716 21.459L18.5276 21.5331L18.4846 21.6071L18.4424 21.6817L18.4009 21.7566L18.3604 21.8317L18.3207 21.9072L18.2818 21.983L18.2436 22.0592L18.2065 22.1354L18.17 22.2122L18.1344 22.289L18.0998 22.3661L18.0658 22.4435L18.0327 22.5213L18.0005 22.599L17.9692 22.6772L17.9387 22.7555L17.909 22.834L17.8802 22.9125L17.8523 22.9915L17.8251 23.0706L17.7988 23.1498L17.7734 23.2291L17.7488 23.3088L17.7251 23.3884L17.7024 23.4681L17.6803 23.5481L17.6591 23.6282L17.6388 23.7083L17.6194 23.7885L17.6008 23.8689L17.583 23.9493L17.5662 24.0299L17.5502 24.1104L17.535 24.1909L17.5207 24.2717L17.5073 24.3523L17.4946 24.433L17.4828 24.5139L17.4719 24.5944L17.4619 24.6754L17.4527 24.7559L17.4443 24.8367L17.4368 24.9176L17.4301 24.9982L17.4243 25.0789L17.4193 25.1596L17.4151 25.24L17.4118 25.3205L17.4093 25.4008L17.4077 25.4813L17.4068 25.5615L17.4069 25.6416L17.4077 25.7216L17.4094 25.8016L17.4119 25.8814L17.4152 25.961L17.4193 26.0406L17.4243 26.1199L17.4301 26.1991L17.4367 26.2782L17.4441 26.3571L17.4523 26.4359L17.4612 26.5142L17.471 26.5927L17.4816 26.6707L17.493 26.7488L17.5052 26.8264L17.5182 26.9039L17.5319 26.9813L17.5465 27.0582L17.5618 27.135L17.5778 27.2114L17.5948 27.2877L17.6124 27.3636L17.6308 27.4394L17.6499 27.5147L17.6699 27.59L17.6904 27.6647L17.7118 27.7393L17.734 27.8134L17.7568 27.8874L17.7804 27.9609L17.8048 28.034L17.8299 28.1071L17.8557 28.1796L17.8821 28.2516L17.9093 28.3235L17.9373 28.395L17.9659 28.466L17.9952 28.5367L18.0251 28.6069L18.0559 28.6769L18.0873 28.7465L18.1193 28.8156L18.152 28.8842L18.1853 28.9524L18.2195 29.0205L18.2541 29.0877L18.2894 29.1547L18.3254 29.2213L18.3621 29.2873L18.3994 29.353L18.4373 29.4182L18.4758 29.4827L18.515 29.5471L18.5546 29.6108L18.595 29.674L18.636 29.7368L18.6775 29.7991L18.7196 29.861L18.7623 29.9221L18.8055 29.983L18.8494 30.0432L18.8937 30.1029L18.9388 30.1622L18.9843 30.2208L19.0303 30.2789L19.0769 30.3365L19.1241 30.3936L19.1716 30.45L19.2199 30.506L19.2685 30.5615L19.3176 30.6163L19.3675 30.6706L19.4175 30.7241L19.4682 30.7774L19.5193 30.8299L19.5708 30.8818L19.6229 30.9332L19.6754 30.984L19.7284 31.0342L19.7818 31.0838L19.8357 31.1327L19.89 31.1811L19.9446 31.2289L19.9998 31.276L20.0552 31.3226L20.1111 31.3685L20.1675 31.4139L20.2243 31.4585L20.2812 31.5025L20.3387 31.5459L20.3966 31.5888L20.4548 31.6309L20.5133 31.6724L20.5721 31.7133L20.6313 31.7535L20.6909 31.7931L20.7507 31.8319L20.8108 31.8702L20.8715 31.908L20.9321 31.9448L20.9932 31.9811L21.0546 32.0168L21.1161 32.0517L21.1779 32.086L21.2403 32.1198L21.3027 32.1527L21.3653 32.185L21.4282 32.2166L21.4915 32.2476L21.5546 32.2779L21.6184 32.3075L21.6821 32.3365L21.746 32.3647L21.8103 32.3923L21.8748 32.4192L21.9392 32.4455L22.004 32.471L22.0688 32.4958L22.1341 32.52L22.1991 32.5435L22.2646 32.5664L22.33 32.5884L22.3955 32.6099L22.4613 32.6307L22.5273 32.6508L22.5932 32.6701L22.6592 32.6889L22.7254 32.7068L22.7917 32.7242L22.8579 32.7408L22.9243 32.7568L22.9907 32.7721L23.0571 32.7866L23.1237 32.8006L23.1903 32.8138L23.2569 32.8264L23.3235 32.8382L23.3902 32.8494L23.4569 32.8599L23.5236 32.8698L23.5901 32.8789L23.6568 32.8873L23.7234 32.8951L23.7901 32.9023L23.8567 32.9086L23.9233 32.9144L23.9898 32.9196L24.0561 32.924L24.1226 32.9277L24.1888 32.9308L24.255 32.9333L24.3213 32.935L24.3873 32.9361L24.4532 32.9366L24.5191 32.9364L24.5848 32.9356L24.6505 32.934L24.7161 32.9318L24.7813 32.9291L24.8466 32.9256L24.9119 32.9215L24.9767 32.9167L25.0416 32.9114L25.1061 32.9054L25.1707 32.8988L25.235 32.8914L25.299 32.8835L25.3631 32.875L25.4267 32.8658L25.4901 32.856L25.5536 32.8457L25.6167 32.8347L25.6795 32.8231L25.7423 32.8108L25.8048 32.798L25.8668 32.7846L25.9286 32.7706L25.9904 32.7559L26.0519 32.7407L26.1131 32.725L26.174 32.7086L26.2345 32.6917L26.2951 32.6741L26.3551 32.656L26.4146 32.6374L26.4744 32.6181L26.5335 32.5983L26.5924 32.5781L26.6509 32.5572L26.7091 32.5357L26.7671 32.5136L26.8248 32.4911L26.8819 32.4681L26.9388 32.4446L26.9954 32.4204L27.0518 32.3957L27.1075 32.3706L27.1632 32.3449L27.2183 32.3188L27.2729 32.2921L27.3275 32.2649L27.3813 32.2373L27.4351 32.2091L27.4884 32.1804L27.5412 32.1513L27.5936 32.1217L27.6458 32.0916L27.6975 32.061L27.7486 32.03L27.7994 31.9985L27.8499 31.9666L27.8999 31.9343L27.9495 31.9015L27.9986 31.8683L28.0474 31.8346L28.0957 31.8005L28.1434 31.766L28.1908 31.731L28.2377 31.6957L28.2842 31.6599L28.3302 31.6238L28.3759 31.5872L28.4209 31.5504L28.4656 31.5131L28.5096 31.4754L28.5533 31.4373L28.5966 31.3989L28.6393 31.36L28.6816 31.3209L28.7232 31.2815L28.7645 31.2416L28.8053 31.2014L28.8457 31.1609L28.8854 31.1201L28.9246 31.0789L28.9634 31.0375L29.0018 30.9956L29.0394 30.9536L29.0768 30.9111L29.1135 30.8684L29.1496 30.8256L29.1856 30.7822L29.2206 30.7388L29.2553 30.6949L29.2895 30.6509L29.3231 30.6066L29.3562 30.5619L29.3887 30.5173L29.4208 30.4721L29.4524 30.4267L29.4833 30.3814L29.5137 30.3355L29.5437 30.2896L29.5729 30.2434L29.6018 30.1971L29.6301 30.1505L29.6578 30.1036L29.6851 30.0567L29.7117 30.0096L29.7378 29.9623L29.7634 29.9147L29.7884 29.8672L29.8128 29.8193L29.8368 29.7714L29.8602 29.7233L29.8831 29.6749L29.9053 29.6266L29.927 29.5781L29.9482 29.5296L29.9688 29.4807L29.9888 29.4319L30.0085 29.3827L30.0274 29.334L30.0459 29.2844L30.0636 29.2357L30.081 29.1861L30.0978 29.1366L30.114 29.0873L30.1296 29.0377L30.1448 28.9883L30.1594 28.9383L30.1733 28.889L30.1869 28.8389L30.1998 28.7896L30.2121 28.7396L30.224 28.6896L30.2352 28.6399L30.2459 28.5904L30.2561 28.5401L30.2658 28.4905L30.2749 28.4404L30.2834 28.3908L30.2915 28.341L30.299 28.2911L30.3059 28.2413L30.3123 28.1915L30.3182 28.1419L30.3235 28.0925L30.3283 28.0426L30.3326 27.9932L30.3363 27.9436L30.3395 27.8942L30.3423 27.8449L30.3444 27.7957L30.346 27.7467L30.3471 27.6974L30.3478 27.6482L30.3479 27.5994L30.3475 27.5507L30.3466 27.5021L30.3451 27.4535L30.3432 27.4048L30.3407 27.3569L30.3377 27.3081L30.3343 27.2605L30.3303 27.2126L30.3259 27.1644L30.3209 27.1168L30.3156 27.0697L30.3095 27.0218L30.3032 26.975L30.2962 26.9279L30.289 26.8814L30.281 26.8344L30.2727 26.7879L30.264 26.7417L30.2548 26.6957L30.245 26.6496L30.2348 26.604L30.2242 26.5584L30.2131 26.5132L30.2016 26.4683L30.1894 26.4231L30.1771 26.3788L30.1642 26.334L30.1509 26.29L30.1371 26.246L30.1229 26.2024L30.1083 26.1589L30.0932 26.1155L30.0778 26.0727L30.0619 26.0301L30.0456 25.9874L30.0288 25.9454L30.0117 25.9031L29.9943 25.8618L29.9762 25.8201L29.9581 25.7791L29.9393 25.7384L29.9202 25.6977L29.9008 25.6575L29.8809 25.6175L29.8607 25.5777L29.8401 25.5384L29.8191 25.4993L29.7978 25.4606L29.7761 25.4221L29.754 25.3839L29.7317 25.346L29.709 25.3085L29.6858 25.2711L29.6624 25.2344L29.6386 25.1979L29.6145 25.1616L29.5901 25.1256L29.5654 25.0901L29.5403 25.0548L29.515 25.0199L29.4893 24.9854L29.4633 24.9511L29.4371 24.9173L29.4104 24.8836L29.3836 24.8506L29.3565 24.8177L29.3291 24.7852L29.3013 24.7531L29.2735 24.7214L29.2452 24.69L29.2167 24.659L29.1879 24.6282L29.159 24.598L29.1296 24.5681L29.1001 24.5384L29.0704 24.5093L29.0404 24.4806L29.0103 24.4522L28.9796 24.424L28.9492 24.3964L28.9183 24.369L28.8873 24.3422L28.8559 24.3156L28.8244 24.2896L28.7927 24.2638L28.7609 24.2384L28.7288 24.2134L28.6966 24.1888L28.6642 24.1647L28.6316 24.1408L28.5987 24.1174L28.5659 24.0944L28.5328 24.0717L28.4996 24.0496L28.4662 24.0277L28.4326 24.0063L28.3991 23.9852L28.3651 23.9646L28.3312 23.9443L28.2973 23.9246L28.2631 23.9051L28.2286 23.886L28.1943 23.8674L28.1599 23.8491L28.1252 23.8313L28.0907 23.8139L28.0557 23.7967L28.0209 23.7801L27.9859 23.764L27.9509 23.7481L27.9158 23.7326L27.8804 23.7175L27.8454 23.703L27.81 23.6888L27.7745 23.6749L27.7392 23.6615L27.7037 23.6484L27.6683 23.6358L27.6327 23.6235L27.5971 23.6116L27.5617 23.6002L27.526 23.5891L27.4903 23.5784L27.4549 23.5682L27.419 23.5583L27.3835 23.5489L27.3478 23.5398L27.3121 23.531L27.2765 23.5227L27.2409 23.5148L27.2052 23.5073L27.1696 23.5001L27.1342 23.4933L27.0987 23.4869L27.0631 23.4809L27.0278 23.4754L26.9921 23.4701L26.957 23.4652L26.9216 23.4607L26.8863 23.4566L26.8513 23.4529L26.8161 23.4496L26.7811 23.4465L26.7461 23.4439L26.7112 23.4416L26.6763 23.4397L26.6416 23.4382L26.6071 23.4371L26.5725 23.4361L26.5381 23.4357L26.5036 23.4356L26.4694 23.4359L26.4352 23.4365L26.4012 23.4374L26.3673 23.4388L26.3336 23.4404L26.2998 23.4424L26.2663 23.4447L26.2329 23.4473L26.1996 23.4503L26.1666 23.4536L26.1334 23.4573L26.1007 23.4613L26.0679 23.4656L26.0354 23.4702L26.0029 23.4752L25.9708 23.4805L25.9386 23.486L25.9069 23.4919L25.875 23.4982L25.8435 23.5047L25.812 23.5115L25.7809 23.5186Z" fill="#7152F3"/>
</svg>
